<?xml version="1.0" encoding="UTF-8" standalone="no"?>
<!-- Created with Inkscape (http://www.inkscape.org/) -->

<svg
   width="28.594124mm"
   height="6.9108276mm"
   viewBox="0 0 28.594124 6.9108276"
   version="1.1"
   id="svg5"
   xml:space="preserve"
   xmlns="http://www.w3.org/2000/svg"
   xmlns:svg="http://www.w3.org/2000/svg"><defs
     id="defs2" /><g
     id="layer1"
     transform="translate(-80.346155,-66.151159)"><rect
       width="5.7923288"
       height="5.7923288"
       fill="none"
       id="rect3585"
       x="81.859268"
       y="66.151161"
       style="stroke-width:0.0226262" /><g
       id="g3364"
       transform="translate(-0.30479332,3.782023)"><g
         aria-label="Be"
         id="text438"
         style="font-size:6.19395px;font-family:Roboto;-inkscape-font-specification:'Roboto, Normal';fill:#996dff;fill-rule:evenodd;stroke-width:0.265492"><path
           d="m 90.835608,66.751576 q 0,0.616976 -0.399219,0.94361 -0.396195,0.326634 -1.055512,0.326634 h -1.542439 v -4.403511 h 1.442634 q 0.677463,0 1.055512,0.281268 0.381073,0.278244 0.381073,0.892195 0,0.305463 -0.175414,0.54439 -0.172391,0.235902 -0.47483,0.365951 0.372,0.102829 0.568586,0.390146 0.199609,0.287317 0.199609,0.659317 z m -2.413463,-2.655414 v 1.397268 h 0.877073 q 0.375025,0 0.604878,-0.187512 0.229854,-0.187512 0.229854,-0.520195 0,-0.674439 -0.816585,-0.689561 z m 1.832781,2.661463 q 0,-0.368975 -0.202635,-0.580683 -0.199609,-0.214731 -0.644195,-0.214731 h -0.985951 v 1.58478 h 0.958732 q 0.414341,0 0.644195,-0.211707 0.229854,-0.214732 0.229854,-0.577659 z"
           id="path5361" /><path
           d="m 94.201754,67.45021 q -0.160292,0.241952 -0.453658,0.438537 -0.293366,0.193561 -0.777268,0.193561 -0.683513,0 -1.09483,-0.444585 -0.408292,-0.444586 -0.408292,-1.137171 v -0.127024 q 0,-0.535317 0.202634,-0.910342 0.205658,-0.378048 0.532293,-0.574634 0.326634,-0.199609 0.695609,-0.199609 0.701659,0 1.022244,0.459707 0.32361,0.456683 0.32361,1.143219 v 0.251024 h -2.213854 q 0.0121,0.450635 0.266147,0.768195 0.257073,0.314537 0.704682,0.314537 0.296391,0 0.502049,-0.120976 0.205659,-0.120975 0.359903,-0.323609 z m -1.303512,-2.30156 q -0.332683,0 -0.562536,0.241951 -0.229854,0.241951 -0.287317,0.69561 h 1.636195 v -0.04234 Q 93.663413,65.717235 93.494047,65.432942 93.327706,65.14865 92.898242,65.14865 Z"
           id="path5363" /></g><g
         aria-label="Help"
         id="text442"
         style="font-size:6.19395px;font-family:Roboto;-inkscape-font-specification:'Roboto, Normal';fill:#00b37e;fill-rule:evenodd;stroke-width:0.265492"><path
           d="m 98.117618,68.02182 v -2.035414 h -2.219902 v 2.035414 h -0.583707 v -4.403511 h 0.583707 v 1.893268 h 2.219902 v -1.893268 h 0.580683 v 4.403511 z"
           id="path5366" /><path
           d="m 102.23684,67.45021 q -0.1603,0.241952 -0.45366,0.438537 -0.29337,0.193561 -0.77727,0.193561 -0.68351,0 -1.094829,-0.444585 -0.408292,-0.444586 -0.408292,-1.137171 v -0.127024 q 0,-0.535317 0.202634,-0.910342 0.205658,-0.378048 0.532297,-0.574634 0.32663,-0.199609 0.69561,-0.199609 0.70165,0 1.02224,0.459707 0.32361,0.456683 0.32361,1.143219 v 0.251024 h -2.21385 q 0.0121,0.450635 0.26614,0.768195 0.25707,0.314537 0.70468,0.314537 0.29639,0 0.50205,-0.120976 0.20566,-0.120975 0.35991,-0.323609 z m -1.30351,-2.30156 q -0.33269,0 -0.56254,0.241951 -0.22986,0.241951 -0.28732,0.69561 h 1.6362 v -0.04234 q -0.0212,-0.326634 -0.19054,-0.610927 -0.16634,-0.284292 -0.5958,-0.284292 z"
           id="path5368" /><path
           d="m 103.54035,63.376357 v 4.645463 h -0.56254 v -4.645463 z"
           id="path5370" /><path
           d="m 105.93264,68.082308 q -0.58975,0 -0.93454,-0.378049 v 1.575707 h -0.56253 V 64.74943 h 0.51414 l 0.0272,0.359903 q 0.34478,-0.42039 0.94664,-0.42039 0.62,0 0.94966,0.459707 0.32965,0.459707 0.32965,1.209756 v 0.06351 q 0,0.71678 -0.33268,1.188585 -0.32966,0.471805 -0.93756,0.471805 z m -0.17239,-2.921561 q -0.5081,0 -0.76215,0.450634 v 1.566634 q 0.25708,0.444586 0.7682,0.444586 0.45366,0 0.66234,-0.356878 0.21171,-0.356878 0.21171,-0.843805 v -0.06351 q 0,-0.486927 -0.21171,-0.840781 -0.20868,-0.356878 -0.66839,-0.356878 z"
           id="path5372" /></g></g><line
       x1="107.31117"
       y1="71.681641"
       x2="108.75926"
       y2="71.681641"
       fill="none"
       stroke="#000000"
       stroke-linecap="round"
       stroke-linejoin="round"
       stroke-width="0.36202"
       id="line3589-6"
       style="stroke:#996dff;stroke-opacity:1" /><g
       id="g4849"
       transform="translate(-3.208707,-84.241301)"><path
         d="m 84.776682,155.20588 -0.744405,0.62448 a 0.18101027,0.18101027 0 0 1 -0.296405,-0.13802 v -3.59305 a 0.18101027,0.18101027 0 0 1 0.181011,-0.18101 h 3.982227 a 0.18101027,0.18101027 0 0 1 0.181009,0.18101 v 2.89616 a 0.18101027,0.18101027 0 0 1 -0.181009,0.18101 h -3.038711 z"
         fill="none"
         stroke="#000000"
         stroke-linecap="round"
         stroke-linejoin="round"
         stroke-width="0.36202"
         id="path3587"
         style="fill:none;fill-opacity:1;stroke:#00b37e;stroke-opacity:1" /><line
         x1="85.183952"
         y1="153.18535"
         x2="86.632034"
         y2="153.18535"
         fill="none"
         stroke="#000000"
         stroke-linecap="round"
         stroke-linejoin="round"
         stroke-width="0.36202"
         id="line3589"
         style="stroke:#996dff;stroke-opacity:1" /><line
         x1="85.183952"
         y1="153.90939"
         x2="86.632034"
         y2="153.90939"
         fill="none"
         stroke="#000000"
         stroke-linecap="round"
         stroke-linejoin="round"
         stroke-width="0.36202"
         id="line3591"
         style="stroke:#996dff;stroke-opacity:1" /></g></g></svg>
